#!OML:ASF H:\LiuWeirdWalks\Patient Classification 1\Patient 1\Session 1\male.ASF
:FULLY-SPECIFIED
:DEGREES
164
root 1.31646 16.5183 4.14076 -6.88322 0.161232 -0.928765
lowerback 8.72532 0.160667 -0.828144
upperback 2.31075 0.207574 2.23219
thorax -2.508 0.106989 2.75394
lowerneck -23.4248 1.7278 4.6937
upperneck 20.2374 2.45519 -6.71177
head 10.5055 0.653252 -2.80846
rclavicle 1.52816e-015 2.22639e-014
rhumerus 25.6904 -2.84212 -40.2115
rradius 70.2768
rwrist 2.03785
rhand 12.3574 -1.79247
rfingers 7.12502
rthumb 37.3587 -27.7634
lclavicle 1.52816e-015 2.22639e-014
lhumerus 19.6159 8.93832 53.9762
lradius 70.7431
lwrist -13.7975
lhand 13.372 -2.36853
lfingers 7.12502
lthumb 38.3171 23.3437
rfemur -13.8536 -9.29632 15.1318
rtibia 59.2321
rfoot -27.1611 -16.6372
rtoes -12.146
lfemur -13.1508 11.0703 -12.3135
ltibia 55.9961
lfoot -24.848 14.0019
ltoes -13.4763
165
root 1.3175 16.5188 4.13943 -6.88821 0.136519 -0.919731
lowerback 8.73434 0.165161 -0.824713
upperback 2.30817 0.213843 2.2302
thorax -2.51599 0.110189 2.7493
lowerneck -23.4055 1.72713 4.70351
upperneck 20.23 2.45418 -6.72373
head 10.4995 0.652445 -2.81437
rclavicle -5.06901e-015 4.37326e-015
rhumerus 25.6822 -2.83981 -40.2189
rradius 70.2772
rwrist 2.08956
rhand 12.3835 -1.76637
rfingers 7.12502
rthumb 37.3834 -27.7307
lclavicle -5.06901e-015 4.37326e-015
lhumerus 19.617 8.96071 53.9835
lradius 70.7374
lwrist -13.8341
lhand 13.3945 -2.38688
lfingers 7.12502
lthumb 38.3383 23.3195
rfemur -13.855 -9.28256 15.1192
rtibia 59.2266
rfoot -27.1611 -16.6193
rtoes -12.1232
lfemur -13.1347 11.0933 -12.3259
ltibia 55.9801
lfoot -24.8346 14.0224
ltoes -13.5013
166
root 1.31853 16.5193 4.13817 -6.89589 0.114302 -0.9019
lowerback 8.74253 0.169691 -0.830943
upperback 2.30855 0.219214 2.2266
thorax -2.52043 0.112919 2.74852
lowerneck -23.3762 1.72318 4.70417
upperneck 20.2181 2.45008 -6.72818
head 10.4897 0.650614 -2.81635
rclavicle 5.34234e-016 3.97569e-015
rhumerus 25.678 -2.84317 -40.2271
rradius 70.2794
rwrist 2.13236
rhand 12.4205 -1.75182
rfingers 7.12502
rthumb 37.4183 -27.707
lclavicle 5.34234e-016 3.97569e-015
lhumerus 19.6288 8.98699 53.9959
lradius 70.7232
lwrist -13.8642
lhand 13.4191 -2.40134
lfingers 7.12502
lthumb 38.3616 23.2986
rfemur -13.8526 -9.27152 15.0951
rtibia 59.2211
rfoot -27.1609 -16.6017
rtoes -12.1058
lfemur -13.1143 11.1131 -12.3475
ltibia 55.9615
lfoot -24.8248 14.0382
ltoes -13.5174
167
root 1.3195 16.5198 4.13702 -6.90521 0.0972389 -0.87385
lowerback 8.7488 0.17278 -0.850102
upperback 2.31068 0.221472 2.22227
thorax -2.52186 0.114106 2.75463
lowerneck -23.3476 1.71964 4.69491
upperneck 20.2102 2.44823 -6.72475
head 10.4813 0.64998 -2.81354
rclavicle 2.48481e-015 1.27222e-014
rhumerus 25.6814 -2.84816 -40.2356
rradius 70.2804
rwrist 2.1643
rhand 12.4633 -1.75515
rfingers 7.12502
rthumb 37.4588 -27.6996
lclavicle 2.48481e-015 1.27222e-014
lhumerus 19.6368 9.01191 54.0031
lradius 70.708
lwrist -13.8735
lhand 13.4318 -2.40609
lfingers 7.12502
lthumb 38.3735 23.2905
rfemur -13.8468 -9.26412 15.0582
rtibia 59.2154
rfoot -27.1627 -16.5843
rtoes -12.0892
lfemur -13.0911 11.1263 -12.3808
ltibia 55.9402
lfoot -24.8178 14.0477
ltoes -13.5196
168
root 1.32045 16.5204 4.13582 -6.91195 0.083492 -0.842042
lowerback 8.75008 0.175218 -0.873601
upperback 2.30907 0.222528 2.21812
thorax -2.52435 0.114754 2.7635
lowerneck -23.3029 1.71749 4.68168
upperneck 20.1963 2.44875 -6.7163
head 10.4678 0.651042 -2.80766
rclavicle -1.2424e-015 -5.1684e-015
rhumerus 25.681 -2.85012 -40.2411
rradius 70.283
rwrist 2.17604
rhand 12.5129 -1.77285
rfingers 7.12502
rthumb 37.5057 -27.7049
lclavicle -1.2424e-015 -5.1684e-015
lhumerus 19.6337 9.02926 54.0073
lradius 70.6952
lwrist -13.8645
lhand 13.439 -2.40118
lfingers 7.12502
lthumb 38.3803 23.2936
rfemur -13.8431 -9.25951 15.0172
rtibia 59.2089
rfoot -27.162 -16.5703
rtoes -12.0818
lfemur -13.0726 11.1361 -12.4188
ltibia 55.9186
lfoot -24.8132 14.0495
ltoes -13.5103
169
root 1.32141 16.5211 4.1346 -6.9165 0.0694045 -0.811503
lowerback 8.7455 0.177731 -0.895223
upperback 2.30637 0.223883 2.21501
thorax -2.52473 0.115534 2.77233
lowerneck -23.2448 1.7131 4.65572
upperneck 20.1798 2.44793 -6.69583
head 10.4505 0.652212 -2.79538
rclavicle -7.95139e-016 -3.57812e-015
rhumerus 25.6802 -2.85255 -40.245
rradius 70.2858
rwrist 2.1685
rhand 12.5718 -1.79327
rfingers 7.12502
rthumb 37.5613 -27.7105
lclavicle -7.95139e-016 -3.57812e-015
lhumerus 19.6222 9.03877 54.0046
lradius 70.6861
lwrist -13.8357
lhand 13.4417 -2.37844
lfingers 7.12502
lthumb 38.3828 23.3156
rfemur -13.842 -9.25394 14.9785
rtibia 59.2017
rfoot -27.1597 -16.5602
rtoes -12.0784
lfemur -13.0578 11.147 -12.4556
ltibia 55.8986
lfoot -24.8074 14.0512
ltoes -13.5036
170
root 1.32216 16.5217 4.13322 -6.91815 0.053528 -0.793097
lowerback 8.73778 0.180567 -0.905353
upperback 2.2991 0.226856 2.21564
thorax -2.52818 0.117149 2.77839
lowerneck -23.1683 1.70924 4.63148
upperneck 20.1628 2.44799 -6.67571
head 10.4298 0.654189 -2.7833
rclavicle -3.23025e-015 -1.59028e-014
rhumerus 25.6736 -2.85169 -40.2478
rradius 70.2881
rwrist 2.1466
rhand 12.6344 -1.81151
rfingers 7.12502
rthumb 37.6205 -27.713
lclavicle -3.23025e-015 -1.59028e-014
lhumerus 19.598 9.03699 53.9964
lradius 70.6832
lwrist -13.798
lhand 13.4455 -2.35492
lfingers 7.12502
lthumb 38.3865 23.3381
rfemur -13.8456 -9.2444 14.9573
rtibia 59.1942
rfoot -27.1547 -16.5562
rtoes -12.0767
lfemur -13.0495 11.16 -12.4772
ltibia 55.883
lfoot -24.8032 14.0476
ltoes -13.4924
171
root 1.32276 16.5224 4.13165 -6.9179 0.0359904 -0.788025
lowerback 8.72884 0.183278 -0.901533
upperback 2.29143 0.231006 2.21985
thorax -2.5314 0.119299 2.78015
lowerneck -23.0965 1.70782 4.61692
upperneck 20.1417 2.45026 -6.66596
head 10.4089 0.65661 -2.7762
rclavicle 5.2181e-016 1.03368e-014
rhumerus 25.6666 -2.85038 -40.2478
rradius 70.2894
rwrist 2.12381
rhand 12.6881 -1.81827
rfingers 7.12502
rthumb 37.6713 -27.7062
lclavicle 5.2181e-016 1.03368e-014
lhumerus 19.5718 9.03408 53.9897
lradius 70.6826
lwrist -13.7657
lhand 13.4503 -2.32129
lfingers 7.12502
lthumb 38.391 23.3705
rfemur -13.8531 -9.23177 14.9539
rtibia 59.1868
rfoot -27.1475 -16.5554
rtoes -12.0759
lfemur -13.0471 11.1734 -12.4827
ltibia 55.8717
lfoot -24.8 14.0409
ltoes -13.4762
172
root 1.32325 16.5229 4.12988 -6.91626 0.0182745 -0.793485
lowerback 8.7207 0.186659 -0.886168
upperback 2.28242 0.237165 2.22658
thorax -2.53653 0.122437 2.7778
lowerneck -23.0247 1.70526 4.60661
upperneck 20.1206 2.45093 -6.66207
head 10.388 0.657905 -2.77219
rclavicle 1.31695e-015 -1.19271e-014
rhumerus 25.6552 -2.84847 -40.243
rradius 70.2892
rwrist 2.10346
rhand 12.7261 -1.81468
rfingers 7.12502
rthumb 37.7071 -27.693
lclavicle 1.31695e-015 -1.19271e-014
lhumerus 19.5481 9.02983 53.9897
lradius 70.6823
lwrist -13.7478
lhand 13.4545 -2.29813
lfingers 7.12502
lthumb 38.3949 23.3925
rfemur -13.8638 -9.21858 14.9643
rtibia 59.1798
rfoot -27.1358 -16.5584
rtoes -12.0772
lfemur -13.0495 11.1871 -12.4757
ltibia 55.8642
lfoot -24.797 14.0338
ltoes -13.4581
173
root 1.32369 16.5234 4.12813 -6.91662 0.00201689 -0.800873
lowerback 8.71215 0.190167 -0.868088
upperback 2.27754 0.243668 2.23323
thorax -2.53718 0.125655 2.77378
lowerneck -22.9713 1.70216 4.60485
upperneck 20.0991 2.44995 -6.66927
head 10.3705 0.657446 -2.77398
rclavicle 9.69075e-016 -1.78906e-014
rhumerus 25.6462 -2.84991 -40.2347
rradius 70.2866
rwrist 2.09963
rhand 12.7448 -1.80316
rfingers 7.12502
rthumb 37.7248 -27.6767
lclavicle 9.69075e-016 -1.78906e-014
lhumerus 19.5325 9.03172 53.9986
lradius 70.6822
lwrist -13.746
lhand 13.4576 -2.28065
lfingers 7.12502
lthumb 38.3979 23.4092
rfemur -13.8718 -9.20636 14.9762
rtibia 59.1728
rfoot -27.1247 -16.5581
rtoes -12.0722
lfemur -13.0506 11.1997 -12.4659
ltibia 55.8579
lfoot -24.7964 14.0246
ltoes -13.4367
174
root 1.32416 16.5239 4.12647 -6.92074 -0.0132232 -0.807372
lowerback 8.70715 0.193797 -0.850143
upperback 2.27654 0.250245 2.239
thorax -2.53577 0.128858 2.76891
lowerneck -22.9428 1.70098 4.60823
upperneck 20.083 2.45024 -6.68063
head 10.3597 0.657015 -2.77816
rclavicle -4.28629e-015 8.34896e-015
rhumerus 25.6392 -2.85293 -40.2216
rradius 70.2822
rwrist 2.10258
rhand 12.7471 -1.78804
rfingers 7.12502
rthumb 37.727 -27.661
lclavicle -4.28629e-015 8.34896e-015
lhumerus 19.5241 9.04138 54.0151
lradius 70.6833
lwrist -13.7575
lhand 13.4703 -2.27727
lfingers 7.12502
lthumb 38.4098 23.4093
rfemur -13.8747 -9.19471 14.9861
rtibia 59.1654
rfoot -27.1119 -16.5579
rtoes -12.0661
lfemur -13.0471 11.2126 -12.4566
ltibia 55.8514
lfoot -24.7946 14.0201
ltoes -13.4249
175
root 1.32464 16.5245 4.1249 -6.92833 -0.0273354 -0.809872
lowerback 8.70615 0.196715 -0.83704
upperback 2.28046 0.255353 2.2437
thorax -2.53141 0.131276 2.76582
lowerneck -22.9421 1.70183 4.6107
upperneck 20.0755 2.45251 -6.68972
head 10.3572 0.657183 -2.78136
rclavicle -6.22444e-015 1.07344e-014
rhumerus 25.6362 -2.85805 -40.2051
rradius 70.2789
rwrist 2.11487
rhand 12.727 -1.77678
rfingers 7.12502
rthumb 37.708 -27.6549
lclavicle -6.22444e-015 1.07344e-014
lhumerus 19.5154 9.05696 54.0286
lradius 70.6885
lwrist -13.7731
lhand 13.475 -2.29108
lfingers 7.12502
lthumb 38.4143 23.3942
rfemur -13.8719 -9.18285 14.9905
rtibia 59.1562
rfoot -27.1002 -16.556
rtoes -12.0545
lfemur -13.0386 11.2249 -12.4513
ltibia 55.8438
lfoot -24.7932 14.0165
ltoes -13.4138
176
root 1.32512 16.525 4.12338 -6.93768 -0.0423312 -0.812656
lowerback 8.70719 0.199297 -0.824225
upperback 2.28644 0.259959 2.24833
thorax -2.52601 0.133418 2.76288
lowerneck -22.9541 1.70494 4.61359
upperneck 20.0648 2.45673 -6.69714
head 10.3559 0.658292 -2.78372
rclavicle 2.8948e-015 1.78906e-014
rhumerus 25.6289 -2.86016 -40.181
rradius 70.2826
rwrist 2.12149
rhand 12.6903 -1.77657
rfingers 7.12502
rthumb 37.6733 -27.6639
lclavicle 2.8948e-015 1.78906e-014
lhumerus 19.5063 9.07591 54.0409
lradius 70.6935
lwrist -13.7927
lhand 13.4811 -2.31475
lfingers 7.12502
lthumb 38.4201 23.3689
rfemur -13.8664 -9.1685 14.9955
rtibia 59.1458
rfoot -27.0882 -16.5568
rtoes -12.0478
lfemur -13.0263 11.2385 -12.445
ltibia 55.834
lfoot -24.7912 14.0121
ltoes -13.4055
177
root 1.32542 16.5253 4.12242 -6.95961 -0.0636953 -0.829409
lowerback 8.72706 0.204513 -0.802546
upperback 2.29662 0.269014 2.25855
thorax -2.52694 0.137766 2.7603
lowerneck -23.059 1.70071 4.59247
upperneck 20.1556 2.4546 -6.67976
head 10.4073 0.655476 -2.77654
rclavicle 1.81391e-015 1.82882e-014
rhumerus 25.6424 -2.87325 -40.172
rradius 70.2674
rwrist 2.14279
rhand 12.6873 -1.73847
rfingers 7.12502
rthumb 37.6705 -27.6266
lclavicle 1.81391e-015 1.82882e-014
lhumerus 19.5177 9.11713 54.0827
lradius 70.7158
lwrist -13.8116
lhand 13.5678 -2.33529
lfingers 7.12502
lthumb 38.5019 23.3256
rfemur -13.846 -9.14627 15.0175
rtibia 59.1346
rfoot -27.0676 -16.5685
rtoes -12.0376
lfemur -12.9962 11.2601 -12.4166
ltibia 55.8251
lfoot -24.7877 14.0169
ltoes -13.4464
